<svg xmlns="http://www.w3.org/2000/svg" width="15" height="18"><g fill="#66B830" fill-rule="evenodd"><path d="M4.904 8c1.115 0 2.02-.94 2.02-2.1 0-1.16-.905-2.1-2.02-2.1s-2.02.94-2.02 2.1c0 1.16.905 2.1 2.02 2.1zm0-2.94c.446 0 .808.376.808.84 0 .464-.362.84-.808.84-.446 0-.808-.376-.808-.84 0-.464.362-.84.808-.84z"/><path d="M14.619 4.064L11.242.58a1.175 1.175 0 00-.986-.58H1.183C.53 0 0 .55 0 1.227v15.535c0 .678.53 1.227 1.183 1.227h12.623c.326.049.655-.065.888-.306.233-.242.342-.583.295-.92V5.314c.03-.45-.101-.896-.37-1.251zm-3.18-1.562l1.53 1.586h-1.53V2.502zm-1.223-1.275l.024.049v4.039h3.55V9.69l-2.075-1.227a.577.577 0 00-.733.123l-3.286 3.761-2.761-1.063a.577.577 0 00-.624.143L1.18 14.673V1.227h9.037zM1.183 16.762v-.368h.024l3.676-3.81 2.797 1.071a.577.577 0 00.643-.163l3.235-3.704 2.248 1.332v5.642H1.183z"/></g></svg>