<svg xmlns="http://www.w3.org/2000/svg" width="16" height="19" viewBox="0 0 16 19">
    <path fill="#7C868C" fill-rule="evenodd" d="M14.423 3.544h-3.3A3.876 3.876 0 0 0 7.5 1a3.876 3.876 0 0 0-3.623 2.544h-3.3A.582.582 0 0 0 0 4.13c0 .324.258.586.577.586h.385v12.112c0 .647.516 1.172 1.153 1.172H12.5c.637 0 1.154-.525 1.154-1.172V4.716h.77A.582.582 0 0 0 15 4.13a.582.582 0 0 0-.577-.586zM7.5 2.176c1.05 0 1.962.391 2.412 1.368H5.088c.45-.98 1.362-1.368 2.412-1.368zm5 14.652h-1.538v-6.642a.582.582 0 0 0-.577-.586.582.582 0 0 0-.577.586v6.642H7.885V7.842a.582.582 0 0 0-.577-.586.582.582 0 0 0-.577.586v8.986H4.808v-6.642A.582.582 0 0 0 4.23 9.6a.582.582 0 0 0-.577.586v6.642H2.115V4.716H12.5v12.112z"/>
</svg>
