<svg xmlns="http://www.w3.org/2000/svg" width="18" height="19" viewBox="0 0 18 19">
    <path fill="#7C868C" fill-rule="evenodd" d="M14.843 10.414A4.024 4.024 0 0 1 17 14.068a4.032 4.032 0 0 1-2.343 3.542 4.164 4.164 0 0 1-4.273-.453h-7.22C1.968 17.157 1 16.205 1 15.031V3.126C1 1.952 1.968 1 3.163 1h6.615c.714 0 1.383.347 1.786.927l2.855 3.342c.044.052.083.107.117.166.201.33.308.708.307 1.092v3.887zM2.298 15.03c0 .47.387.85.865.85H9.28c-.74-1.351-.637-3 .269-4.25a4.138 4.138 0 0 1 3.997-1.647V6.527a.84.84 0 0 0-.126-.425l-2.903-3.401a.868.868 0 0 0-.74-.425H3.164a.858.858 0 0 0-.865.85V15.03zm10.599 1.7c1.553 0 2.812-1.237 2.812-2.763 0-1.526-1.26-2.764-2.812-2.764-1.553 0-2.812 1.238-2.812 2.764 0 1.526 1.259 2.764 2.812 2.764zm1.13-3.415c.296 0 .535.254.535.567 0 .313-.24.567-.535.567h-.535v.567c0 .313-.24.567-.535.567-.295 0-.535-.254-.535-.567v-.567h-.535c-.295 0-.535-.254-.535-.567 0-.313.24-.567.535-.567h.535v-.567c0-.313.24-.567.535-.567.296 0 .535.254.535.567v.567h.535z"/>
</svg>
