<svg xmlns="http://www.w3.org/2000/svg" width="20" height="19" viewBox="0 0 20 19">
    <path fill="#7C868C" fill-rule="evenodd" d="M1.404 3.587a.678.678 0 0 1 0-1.358h1.227A2.478 2.478 0 0 1 5.016.42c1.11 0 2.083.74 2.384 1.81h11.598a.678.678 0 0 1 0 1.358H7.395a2.478 2.478 0 0 1-2.384 1.81c-1.11 0-2.084-.74-2.384-1.81H1.404zm3.61-1.81a1.13 1.13 0 0 0-1.128 1.131 1.13 1.13 0 0 0 1.127 1.131 1.13 1.13 0 0 0 1.128-1.131 1.13 1.13 0 0 0-1.128-1.13zm13.984 6.786a.678.678 0 0 1 0 1.357h-6.356a2.483 2.483 0 0 1-2.438 2.028A2.483 2.483 0 0 1 7.765 9.92h-6.36a.678.678 0 0 1 0-1.357h6.487a2.477 2.477 0 0 1 2.31-1.587c1.022 0 1.94.63 2.31 1.587h6.486zm-8.797 2.036a1.13 1.13 0 0 0 1.128-1.131 1.13 1.13 0 0 0-1.128-1.131 1.13 1.13 0 0 0-1.127 1.13A1.13 1.13 0 0 0 10.2 10.6zm8.797 4.297a.678.678 0 0 1 0 1.357h-1.227a2.478 2.478 0 0 1-2.384 1.812c-1.11 0-2.084-.74-2.384-1.812H1.404a.678.678 0 0 1 0-1.357h11.603a2.478 2.478 0 0 1 2.385-1.811c1.11 0 2.083.74 2.384 1.811h1.222zm-3.609 1.81a1.13 1.13 0 0 0 1.128-1.131 1.13 1.13 0 0 0-1.128-1.131 1.13 1.13 0 0 0-1.128 1.13 1.13 1.13 0 0 0 1.128 1.132z"/>
</svg>
