<svg xmlns="http://www.w3.org/2000/svg" width="17" height="18" viewBox="0 0 17 18">
    <path fill="#66B830" fill-rule="evenodd" d="M4.026 6.241A2.233 2.233 0 0 1 1.79 4.012a2.233 2.233 0 0 1 2.237-2.229c1.236 0 2.237.998 2.237 2.23A2.233 2.233 0 0 1 4.026 6.24zm0-3.12c-.494 0-.894.399-.894.891 0 .493.4.892.894.892s.895-.4.895-.892-.4-.891-.895-.891zM15.658 0A1.34 1.34 0 0 1 17 1.337v5.35c0 .739-.6 1.338-1.342 1.338H1.342A1.34 1.34 0 0 1 0 6.687v-5.35C0 .6.6 0 1.342 0h14.316zm0 6.687v-5.35H1.342v5.35h14.316zM4.026 15.604a2.233 2.233 0 0 1-2.237-2.23 2.233 2.233 0 0 1 2.237-2.228c1.236 0 2.237.998 2.237 2.229a2.233 2.233 0 0 1-2.237 2.229zm0-3.121c-.494 0-.894.4-.894.892s.4.891.894.891.895-.399.895-.891c0-.493-.4-.892-.895-.892zm11.632-3.12A1.34 1.34 0 0 1 17 10.7v5.35c0 .738-.6 1.337-1.342 1.337H1.342A1.34 1.34 0 0 1 0 16.05V10.7c0-.739.6-1.338 1.342-1.338h14.316zm0 6.687V10.7H1.342v5.35h14.316z"/>
</svg>
