<svg xmlns="http://www.w3.org/2000/svg" width="19" height="17" viewBox="0 0 19 17">
    <path fill="#DFDBDB" fill-rule="evenodd" d="M17.843 7.015L10.111.455a1.23 1.23 0 0 0-1.591 0L.787 7.015a1.23 1.23 0 0 0 .738 2.165v6.56c0 .68.55 1.23 1.23 1.23h13.12c.68 0 1.23-.55 1.23-1.23V9.184a1.23 1.23 0 0 0 .738-2.165v-.004zm-8.938 8.729h-.82v-3.69h2.46v3.69h-1.64zm6.97-7.79v7.79h-4.1v-3.69c0-.68-.55-1.23-1.23-1.23h-2.46c-.68 0-1.23.55-1.23 1.23v3.69h-4.1v-7.79H1.583l7.732-6.56 7.733 6.56h-1.173z"/>
</svg>
