<svg xmlns="http://www.w3.org/2000/svg" width="19" height="20" viewBox="0 0 19 20">
    <path fill="#66B830" fill-rule="evenodd" d="M9.152 2.43a.618.618 0 0 1-.617-.618V.99a.618.618 0 1 1 1.235 0v.823a.618.618 0 0 1-.618.618zm8.856 5.56a.618.618 0 1 1 0 1.237h-.824a.618.618 0 1 1 0-1.236h.824zM2.15 8.61a.618.618 0 0 1-.618.618H.708a.618.618 0 1 1 0-1.236h.824c.341 0 .618.276.618.618zm12.74-4.095a.618.618 0 0 1-.436-1.054l.584-.58a.618.618 0 0 1 .874.872l-.585.581a.618.618 0 0 1-.437.181zM3.851 3.46a.618.618 0 0 1-.873.873l-.585-.58a.618.618 0 0 1 .873-.874l.585.581zm12.304 9.886l.585.58a.618.618 0 0 1-.874.874l-.585-.581a.618.618 0 0 1 .874-.873zm-14.005 0a.618.618 0 0 1 .873.873l-.585.58a.618.618 0 0 1-.873-.873l.585-.58zm12.975-3.708c0 2.138-1.182 4.101-3.073 5.1.129.199.197.43.198.667v1.236a2.471 2.471 0 0 1-2.472 2.471h-.823a2.471 2.471 0 0 1-2.472-2.471v-1.236c0-.237.07-.468.198-.667a5.767 5.767 0 1 1 8.444-5.1zm-4.12 5.767H7.712v1.236c0 .682.553 1.235 1.235 1.235h.824a1.236 1.236 0 0 0 1.162-.823H8.946a.618.618 0 0 1 0-1.236h2.06v-.412zm-1.647-1.236h-.004a4.53 4.53 0 1 0 0-9.061 4.53 4.53 0 0 0 .004 9.061zm0-8.032a3.505 3.505 0 0 1 3.501 3.501.618.618 0 0 1-1.235 0 2.27 2.27 0 0 0-2.266-2.265.618.618 0 1 1 0-1.236z"/>
</svg>
