<svg xmlns="http://www.w3.org/2000/svg" width="16" height="18" viewBox="0 0 16 18">
    <g fill="#DFDBDB" fill-rule="nonzero">
        <path d="M13.488 16.56h-12V1.36h6.8V.16h-6.8a1.2 1.2 0 0 0-1.2 1.2v15.2a1.2 1.2 0 0 0 1.2 1.2h12a1.2 1.2 0 0 0 1.2-1.2v-7.6h-1.2v7.6z"/>
        <path d="M15.536 1.656l-.848-.848a1.2 1.2 0 0 0-1.696 0s-6.668 6.66-6.768 7.064l-.3 1.2a1.2 1.2 0 0 0 1.456 1.456l1.2-.3c.4-.104 6.956-6.872 6.956-6.872a1.2 1.2 0 0 0 0-1.696v-.004zm-6.48 6.48l-.82-.82-.028-.024L13.84 1.66l.848.848-5.632 5.628z"/>
    </g>
</svg>
