<svg xmlns="http://www.w3.org/2000/svg" width="19" height="20" viewBox="0 0 19 20">
    <path fill="#7C868C" fill-rule="evenodd" d="M18.64 18.746l-4.465-4.481c3.129-3.176 3.224-8.275.216-11.568a8.24 8.24 0 0 0-11.445-.726C-.446 4.86-.984 9.93 1.726 13.476a8.244 8.244 0 0 0 11.337 1.735l4.553 4.593a.72.72 0 0 0 1.006-.018.736.736 0 0 0 .018-1.016v-.024zM1.576 8.414c0-3.77 3.03-6.826 6.766-6.826 3.737 0 6.766 3.056 6.766 6.826 0 3.77-3.03 6.826-6.766 6.826-3.737 0-6.766-3.056-6.766-6.826z"/>
</svg>
