<svg xmlns="http://www.w3.org/2000/svg" width="19" height="19" viewBox="0 0 19 19">
    <g fill="#7C868C" fill-rule="evenodd">
        <path d="M9.593 6.08a3.378 3.378 0 1 0 0 6.756 3.378 3.378 0 0 0 0-6.756zm0 5.489a2.111 2.111 0 1 1 0-4.222 2.111 2.111 0 0 1 0 4.222z"/>
        <path d="M17.615 6.924h-1.309a5.568 5.568 0 0 0-.177-.422l.925-.924a1.267 1.267 0 0 0 0-1.79l-1.79-1.79a1.267 1.267 0 0 0-1.79 0l-.926.924a9.486 9.486 0 0 0-.422-.178V1.436c0-.7-.567-1.267-1.266-1.267H8.326c-.7 0-1.266.567-1.266 1.267v1.308a5.568 5.568 0 0 0-.423.178l-.924-.925a1.267 1.267 0 0 0-1.79 0l-1.79 1.79a1.267 1.267 0 0 0 0 1.79l.915.925a9.486 9.486 0 0 0-.177.422H1.562c-.7 0-1.266.568-1.266 1.267v2.533c0 .7.567 1.267 1.266 1.267h1.31c.053.144.112.284.176.422l-.924.925a1.267 1.267 0 0 0 0 1.79l1.79 1.79a1.267 1.267 0 0 0 1.79 0l.925-.924c.138.062.279.12.422.177v1.309c0 .7.567 1.267 1.267 1.267h2.533c.7 0 1.267-.567 1.267-1.267v-1.309c.143-.053.284-.112.422-.177l.925.924a1.267 1.267 0 0 0 1.79 0l1.79-1.79a1.267 1.267 0 0 0 0-1.79l-.908-.925c.062-.138.121-.278.178-.422h1.309c.7 0 1.266-.567 1.266-1.267V8.191a1.267 1.267 0 0 0-1.275-1.267zm0 3.8h-2.25c-.15.682-.42 1.33-.798 1.917l1.591 1.592-1.79 1.79-1.608-1.591a5.869 5.869 0 0 1-1.917.798v2.25H8.309v-2.25a5.869 5.869 0 0 1-1.917-.798l-1.591 1.591-1.79-1.79 1.591-1.592a5.869 5.869 0 0 1-.798-1.917H1.571V8.191h2.25c.15-.681.42-1.33.798-1.917L3.027 4.682l1.79-1.79L6.41 4.484a5.869 5.869 0 0 1 1.917-.798v-2.25h2.534v2.25c.68.15 1.33.42 1.916.798l1.592-1.592 1.79 1.79-1.591 1.592c.377.587.648 1.236.798 1.917h2.25v2.533z"/>
    </g>
</svg>
