<svg xmlns="http://www.w3.org/2000/svg" width="24" height="22" viewBox="0 0 24 22">
    <path fill="#7C868C" fill-rule="nonzero" d="M8.2 0H23a1 1 0 0 1 1 1v2.632a1 1 0 0 1-1 1H8.2a1 1 0 0 1-1-1V1a1 1 0 0 1 1-1zM1 0h2.8a1 1 0 0 1 1 1v2.632a1 1 0 0 1-1 1H1a1 1 0 0 1-1-1V1a1 1 0 0 1 1-1zm7.227 8.684h14.746c.567 0 1.027.448 1.027 1v2.632c0 .552-.46 1-1.027 1H8.227c-.567 0-1.027-.448-1.027-1V9.684c0-.552.46-1 1.027-1zM1 8.684h2.8a1 1 0 0 1 1 1v2.632a1 1 0 0 1-1 1H1a1 1 0 0 1-1-1V9.684a1 1 0 0 1 1-1zm7.2 8.684H23a1 1 0 0 1 1 1V21a1 1 0 0 1-1 1H8.2a1 1 0 0 1-1-1v-2.632a1 1 0 0 1 1-1zm-7.2 0h2.8a1 1 0 0 1 1 1V21a1 1 0 0 1-1 1H1a1 1 0 0 1-1-1v-2.632a1 1 0 0 1 1-1z"/>
</svg>
